<?xml version="1.0" encoding="UTF-8" ?>
<!DOCTYPE svg PUBLIC "-//W3C//DTD SVG 1.1//EN" "http://www.w3.org/Graphics/SVG/1.1/DTD/svg11.dtd">
<svg viewBox="128 0 256 256" version="1.1" xmlns="http://www.w3.org/2000/svg">
	<path fill="#aaa" d="m 160,256 96,0 c -35.375,0 -64,-32.74971 -64,-73.14286 l 0,-61.52058 c 36.28261,-33.504991 23.30102,-32.995876 23.30102,-32.995876 0,0 43.95321,51.130416 107.95321,49.267056 L 320,182.85714 C 317.1025,223.14624 291.312,256 256,256 l 96,0 c 17.688,0 32,-16.37486 32,-36.57143 -17.688,0 -24.56492,-16.37743 -24.32123,-36.57143 l 0.95642,-79.25486 C 361.36628,43.020306 309,1.346e-5 256,1.346e-5 202.937,1.346e-5 140.30209,50.896922 146.69276,111.14319 l 7.79796,73.51315 C 156.62094,204.73843 145.656,219.42857 128,219.42857 128,239.62514 142.313,256 160,256 z"/>
</svg>